<svg width="81" height="80" viewBox="0 0 81 80" fill="none" xmlns="http://www.w3.org/2000/svg">
<rect x="0.0390625" width="80.0782" height="80" rx="8" fill="#FFC20C"/>
<mask id="mask0_3243_6043" style="mask-type:alpha" maskUnits="userSpaceOnUse" x="0" y="0" width="81" height="80">
<rect x="0.0390625" width="80.0782" height="80" rx="8" fill="white"/>
</mask>
<g mask="url(#mask0_3243_6043)">
<path d="M62.8435 39.7211L58.7038 34.9154L59.2806 28.5544C59.3284 28.0273 58.9845 27.5458 58.4762 27.4282L52.3536 26.0111L49.1495 20.518C48.8829 20.061 48.3235 19.8762 47.8432 20.0864L42.0806 22.6077L36.3181 20.0864C35.8377 19.8762 35.2783 20.061 35.0118 20.518L31.8076 26.0111L25.688 27.4102C25.1784 27.5267 24.833 28.0089 24.8809 28.5371L25.4574 34.8956L21.3155 39.7213C20.9738 40.1194 20.9743 40.7126 21.3167 41.1101L25.4574 45.9171L24.8804 52.298C24.8327 52.825 25.1767 53.3064 25.6848 53.424L31.8076 54.8411L35.0106 60.3323C35.2777 60.7901 35.8385 60.9746 36.3193 60.7628L42.0806 58.2247L47.8432 60.7461C48.3235 60.9563 48.8829 60.7715 49.1495 60.3145L52.3536 54.8213L58.4762 53.4043C58.9845 53.2866 59.3284 52.8051 59.2806 52.2781L58.7038 45.9171L62.8435 41.1113C63.1863 40.7133 63.1863 40.1191 62.8435 39.7211Z" fill="white"/>
<path d="M40.1557 44.5675L44.7434 51.0249C44.9674 51.3401 44.8972 51.7801 44.5867 52.0075C44.4686 52.094 44.3267 52.1405 44.1811 52.1405H42.5127C42.0696 52.1405 41.6532 51.9256 41.3922 51.562L35.9734 44.0147C35.8869 43.8942 35.8403 43.7491 35.8403 43.6V43.1979C35.8403 42.8491 36.1188 42.5663 36.4623 42.5663H38.5158C41.9509 42.5663 44.2639 41.2377 44.6264 39.0562H36.9389C36.3322 39.0562 35.8403 38.5568 35.8403 37.9408C35.8403 37.3248 36.3322 36.8254 36.9389 36.8254H44.6264C44.2984 34.6439 42.4687 33.3481 39.6724 33.3481H37.0935C36.4109 33.3481 35.8576 32.7863 35.8576 32.0933C35.8576 31.4003 36.4109 30.8385 37.0935 30.8385H49.2682C49.8928 30.8385 50.3991 31.3526 50.3991 31.9867C50.3991 32.6208 49.8928 33.1349 49.2682 33.1349H45.6103C46.7668 33.8894 47.5263 35.3984 47.6816 36.8254H49.3005C49.9072 36.8254 50.3991 37.3248 50.3991 37.9408C50.3991 38.5568 49.9072 39.0562 49.3005 39.0562H47.6471C47.1638 42.1727 44.0567 44.5675 40.4836 44.5675H40.1557Z" fill="#FFC20C"/>
<path fill-rule="evenodd" clip-rule="evenodd" d="M51.0557 60.0886V48.9213C51.0557 48.6917 51.1485 48.4715 51.3136 48.3091L54.6349 45.0443C54.9789 44.7062 55.5365 44.7062 55.8805 45.0443L59.2018 48.3091C59.3669 48.4715 59.4597 48.6917 59.4597 48.9213V60.0886C59.4597 60.5667 59.0654 60.9543 58.579 60.9543H51.9364C51.45 60.9543 51.0557 60.5667 51.0557 60.0886Z" fill="white"/>
<path fill-rule="evenodd" clip-rule="evenodd" d="M50.175 60.0886V48.9213C50.175 48.4621 50.3606 48.0216 50.691 47.6969L54.0123 44.4321C54.7002 43.7559 55.8154 43.7559 56.5033 44.4321L59.8246 47.6969C60.155 48.0216 60.3406 48.4621 60.3406 48.9213V60.0886C60.3406 61.0449 59.5519 61.8201 58.5791 61.8201H51.9365C50.9637 61.8201 50.175 61.0449 50.175 60.0886Z" stroke="#FFC20C" stroke-width="1.75161"/>
<ellipse rx="1.03264" ry="1.05051" transform="matrix(-0.0174695 -0.999847 0.999848 -0.0174353 55.2403 49.5774)" fill="#FFC20C"/>
<g opacity="0.2">
<path d="M65.0351 17.7045L69.0045 7.88956C69.104 7.64365 69.2971 7.44729 69.5415 7.34366L73.4507 5.68593C73.9596 5.47013 74.5472 5.70732 74.7632 6.2157L76.4225 10.1211C76.5263 10.3652 76.5287 10.6405 76.4292 10.8864L72.4598 20.7014C72.2528 21.2135 71.6694 21.4608 71.1568 21.254L65.5882 19.0063C65.0757 18.7994 64.828 18.2166 65.0351 17.7045Z" fill="white"/>
<circle r="1" transform="matrix(0.358674 -0.933463 0.933698 0.358062 72.4867 9.90824)" fill="#39C0FF"/>
<circle r="1" transform="matrix(0.358674 -0.933463 0.933698 0.358062 72.4867 9.90824)" stroke="white"/>
</g>
<g opacity="0.3">
<path d="M20.229 74.5849L15.7471 67.6901C15.6025 67.4677 15.5523 67.197 15.6075 66.9376L16.2584 63.878C16.3734 63.3378 16.9049 62.9929 17.4457 63.1078L20.5082 63.7581C20.7679 63.8132 20.995 63.9692 21.1396 64.1916L25.6215 71.0864C25.9226 71.5496 25.7908 72.1689 25.3272 72.4697L21.6137 74.8789C21.15 75.1797 20.5301 75.0481 20.229 74.5849Z" fill="white"/>
<circle r="1" transform="matrix(-0.559568 -0.828784 0.829291 -0.558818 18.6352 66.2635)" fill="#39C0FF"/>
<circle r="1" transform="matrix(-0.559568 -0.828784 0.829291 -0.558818 18.6352 66.2635)" stroke="white"/>
</g>
<path opacity="0.2" d="M30.3287 -18.4956L26.8004 4.50416C26.7167 5.05008 26.2058 5.4248 25.6594 5.34114C25.4605 5.31069 25.2755 5.2211 25.1283 5.08403L5.93662 -12.795C5.53231 -13.1717 5.51019 -13.8045 5.88722 -14.2084C6.02442 -14.3554 6.20276 -14.4577 6.399 -14.5019L29.119 -19.6225C29.6583 -19.7441 30.1941 -19.4059 30.3157 -18.8671C30.3433 -18.7452 30.3477 -18.6191 30.3287 -18.4956Z" fill="white"/>
<ellipse opacity="0.2" cx="76.6218" cy="81.8247" rx="12.0117" ry="12" fill="white"/>
<path opacity="0.3" d="M-2.12628 24.6294L7.28098 33.6102C7.48082 33.8009 7.48801 34.1174 7.29705 34.3171C7.23983 34.3769 7.16864 34.4216 7.08987 34.4472L-4.64411 38.2561C-4.907 38.3414 -5.18935 38.1977 -5.27477 37.935C-5.30036 37.8563 -5.306 37.7725 -5.29119 37.6911L-2.96448 24.9015C-2.91505 24.6298 -2.65452 24.4496 -2.38256 24.499C-2.2862 24.5164 -2.19709 24.5618 -2.12628 24.6294Z" fill="white"/>
<path opacity="0.3" d="M76.9509 34.7221L86.3581 43.7028C86.558 43.8936 86.5652 44.2101 86.3742 44.4097C86.317 44.4696 86.2458 44.5143 86.167 44.5398L74.433 48.3487C74.1702 48.434 73.8878 48.2903 73.8024 48.0277C73.7768 47.949 73.7711 47.8652 73.786 47.7838L76.1127 34.9941C76.1621 34.7224 76.4226 34.5422 76.6946 34.5916C76.791 34.6091 76.8801 34.6545 76.9509 34.7221Z" fill="white"/>
</g>
</svg>
