<svg width="81" height="80" viewBox="0 0 81 80" fill="none" xmlns="http://www.w3.org/2000/svg">
<rect x="0.478027" width="80.0782" height="80" rx="8" fill="#3FB970"/>
<mask id="mask0_3243_5975" style="mask-type:alpha" maskUnits="userSpaceOnUse" x="0" y="0" width="81" height="80">
<rect x="0.478027" width="80.0782" height="80" rx="8" fill="white"/>
</mask>
<g mask="url(#mask0_3243_5975)">
<path opacity="0.2" d="M54.6963 75.8754C54.6963 75.8754 54.5068 70.9179 53.0791 68.4919C52.3028 67.1735 50.5345 66.8022 49.1289 67.6634C47.7234 68.5245 47.2133 70.2911 47.9886 71.6094C49.4162 74.0354 53.6307 76.5458 53.6307 76.5458C54.2734 76.9567 54.757 76.6625 54.6963 75.8754Z" fill="white"/>
<path opacity="0.2" d="M17.0288 63.1765C17.0288 63.1765 13.2537 64.8704 11.8232 66.7297C11.0458 67.7405 11.3107 69.2214 12.4155 70.0375C13.5203 70.8536 15.0458 70.6959 15.8234 69.6858C17.2539 67.8265 17.8799 63.7897 17.8799 63.7897C17.997 63.1654 17.6186 62.8839 17.0288 63.1765Z" fill="white"/>
<path fill-rule="evenodd" clip-rule="evenodd" d="M42.1868 26.8937C42.9931 26.8919 43.794 26.9502 44.582 27.0577C53.1815 28.2223 59.4642 35.5103 58.7618 43.7605C58.4061 47.9175 56.3502 51.6973 52.9699 54.4018C51.7239 55.4005 51.5725 57.1592 52.636 58.3329C53.2216 58.9817 54.0571 59.3133 54.8944 59.3133C55.5749 59.3133 56.259 59.0946 56.8172 58.6481C61.4015 54.9777 64.1926 49.8493 64.676 44.207C65.5644 33.7862 58.2383 24.4935 47.8128 21.9804C45.9904 21.5393 44.1041 21.3134 42.1868 21.3134C40.2696 21.3115 38.3833 21.5375 36.5609 21.9804C27.9158 24.0634 21.3449 30.2669 19.8801 38.4515C20.8984 37.994 23.9723 36.8866 25.8125 36.2236L25.8126 36.2236C26.4283 36.0018 26.906 35.8297 27.1223 35.7484C29.4208 31.0793 34.0763 27.8286 39.7898 27.0541L39.7934 27.0559C40.5797 26.9502 41.3805 26.8955 42.1868 26.8937ZM27.3182 50.8112C29.1777 51.9507 33.9019 55.9437 31.7384 58.3329C31.1528 58.9817 30.3173 59.3134 29.48 59.3134C28.7995 59.3134 28.3197 59.1512 27.5572 58.6482C23.3761 55.3022 20.689 51.4259 19.8808 46.3704C21.1754 47.2265 22.364 47.8838 23.5394 48.5338C24.7159 49.1843 25.8794 49.8277 27.1231 50.6561C27.2564 50.7316 27.3182 50.8112 27.3182 50.8112ZM38.8526 52.5484C31.5703 51.5844 21.0681 44.0139 21.0681 44.0139C19.3515 42.8748 19.523 41.4096 21.4001 40.7499C21.4001 40.7499 33.3306 36.1281 40.613 37.0922C44.5697 37.6171 47.3845 41.5007 46.8993 45.7689C46.4141 50.0371 42.8112 53.0715 38.8526 52.5484Z" fill="white"/>
<g opacity="0.2">
<path d="M78.9477 2.3778C78.9477 2.3778 71.3976 5.76563 68.5364 9.4842C66.9817 11.5059 67.5115 14.4677 69.7211 16.0999C71.9307 17.732 74.9817 17.4167 76.5369 15.3966C79.398 11.678 80.6499 3.60439 80.6499 3.60439C80.8842 2.35565 80.1272 1.79261 78.9477 2.3778Z" fill="white"/>
<circle r="1" transform="matrix(0.358673 -0.933463 0.933697 0.358063 51.9047 15.9082)" stroke="white"/>
</g>
<path opacity="0.2" d="M25.0348 10.8441C25.0348 10.8441 29.8777 4.13883 30.4945 -0.510732C30.8291 -3.03817 28.8879 -5.33849 26.1575 -5.64831C23.4271 -5.95813 20.9426 -4.16096 20.6068 -1.63469C19.9901 3.01487 22.9467 10.6321 22.9467 10.6321C23.3688 11.8306 24.3061 11.9401 25.0348 10.8441Z" fill="white"/>
<ellipse opacity="0.2" cx="82.0657" cy="62.8247" rx="12.0117" ry="12" fill="white"/>
<path opacity="0.3" d="M-1.68732 24.6294L7.71994 33.6102C7.91978 33.8009 7.92698 34.1174 7.73601 34.3171C7.67879 34.3769 7.6076 34.4216 7.52883 34.4472L-4.20515 38.2561C-4.46803 38.3414 -4.75038 38.1977 -4.8358 37.935C-4.86139 37.8563 -4.86704 37.7725 -4.85223 37.6911L-2.52551 24.9015C-2.47609 24.6298 -2.21555 24.4496 -1.94359 24.499C-1.84723 24.5164 -1.75813 24.5618 -1.68732 24.6294Z" fill="white"/>
</g>
</svg>
