<svg width="81" height="80" viewBox="0 0 81 80" fill="none" xmlns="http://www.w3.org/2000/svg">
<rect x="0.0109863" width="80.0782" height="80" rx="8" fill="#2D3486"/>
<mask id="mask0_3280_2870" style="mask-type:alpha" maskUnits="userSpaceOnUse" x="0" y="0" width="81" height="80">
<rect x="0.0109863" width="80.0782" height="80" fill="white"/>
</mask>
<g mask="url(#mask0_3280_2870)">
<path fill-rule="evenodd" clip-rule="evenodd" d="M32.2292 54.4611C32.2292 50.9007 30.9799 49.3949 27.9273 46.566C23.5711 42.5432 21.5832 36.8531 22.4522 30.9587C23.6146 23.225 30.1652 16.9864 38.0302 16.1152C43.1903 15.5451 50.0751 17.1048 53.9098 20.493C57.6903 23.8489 59.8521 28.6462 59.8521 33.6586C59.8521 38.4558 57.9401 42.9412 54.4747 46.2863L54.29 46.4692L54.2866 46.4725C51.4534 49.2025 49.8904 50.7086 49.8904 54.3535V54.9451C49.8904 56.6231 48.5108 57.9891 46.8161 57.9891H42.798C42.798 57.3468 42.7955 56.4467 42.7927 55.385C42.785 52.5646 42.7743 48.6037 42.798 45.306L48.3383 39.8203C48.7619 39.4008 48.7619 38.2622 48.3383 37.8427C47.9146 37.4232 46.7671 37.4232 46.3435 37.8427L41.2594 42.8874L36.1645 37.8427C35.7409 37.4232 34.5934 37.4232 34.1697 37.8427C33.7461 38.2622 33.7461 39.4008 34.1697 39.8203L39.71 45.306V57.9998H35.3035C33.6088 57.9998 32.2292 56.6338 32.2292 54.9558V54.4611ZM44.8662 64.0001H37.638C35.991 64.0001 34.6521 62.6787 34.6521 61.0659V60.3688C34.6521 60.1652 34.8172 60.0002 35.0208 60.0002H47.4834C47.687 60.0002 47.8521 60.1652 47.8521 60.3688V61.0659C47.8521 62.6787 46.5132 64.0001 44.8662 64.0001Z" fill="white"/>
<path d="M71.7786 41.5458L74.0412 42.7832L71.7786 44.0206L70.5413 46.2832L69.3039 44.0206L67.0413 42.7832L69.3039 41.5458L70.5413 39.2832L71.7786 41.5458Z" fill="white" fill-opacity="0.35"/>
<path d="M18.7269 58.5253L23.2522 61L18.7269 63.4747L16.2522 68L13.7774 63.4747L9.2522 61L13.7774 58.5253L16.2522 54L18.7269 58.5253Z" fill="white" fill-opacity="0.35"/>
<g opacity="0.2">
<path d="M31.3734 23.4486C31.3734 23.4486 29.7518 17.0265 27.2181 14.2545C25.8405 12.7481 23.4323 12.7543 21.8387 14.2692C20.2451 15.7842 20.0698 18.233 21.4461 19.7396C23.9798 22.5115 30.17 24.62 30.17 24.62C31.1218 24.9782 31.6708 24.4597 31.3734 23.4486Z" fill="white"/>
<circle r="2" transform="matrix(0.358673 -0.933463 0.933697 0.358063 53.7298 11.3328)" stroke="white"/>
<circle r="1" transform="matrix(0.358673 -0.933463 0.933697 0.358063 52.4386 67.9087)" stroke="white"/>
</g>
</g>
</svg>
