<svg width="81" height="80" viewBox="0 0 81 80" fill="none" xmlns="http://www.w3.org/2000/svg">
<rect x="0.318359" width="80.0782" height="80" rx="8" fill="#1F7AE0"/>
<circle opacity="0.5" r="3" transform="matrix(0.358673 -0.933463 0.933697 0.358063 13.0221 67.7574)" stroke="white"/>
<rect opacity="0.2" x="63" y="57" width="5" height="5" rx="2.5" fill="white"/>
<rect opacity="0.2" x="33" y="12" width="3" height="3" rx="1.5" fill="white"/>
<rect opacity="0.2" x="56.373" y="32" width="10.0098" height="10" rx="5" fill="#81878C"/>
<path fill-rule="evenodd" clip-rule="evenodd" d="M61.1752 24.4064C61.1752 26.2067 59.7181 27.6662 57.9206 27.6662C57.4757 27.6662 57.0516 27.5768 56.6653 27.4149L50.9437 33.067C51.071 33.416 51.1405 33.7929 51.1405 34.1861C51.1405 35.9864 49.6834 37.4459 47.8859 37.4459C46.2552 37.4459 44.9046 36.2446 44.6681 34.6772L37.3097 31.4515C36.7133 32.1288 35.8405 32.556 34.868 32.556C34.2428 32.556 33.6587 32.3794 33.1629 32.0734L24.9634 40.2986C25.0547 40.5993 25.1038 40.9183 25.1038 41.2489C25.1038 43.0492 23.6467 44.5087 21.8493 44.5087C20.0518 44.5087 18.5947 43.0492 18.5947 41.2489C18.5947 39.4485 20.0518 37.989 21.8493 37.989C22.3042 37.989 22.7373 38.0825 23.1306 38.2513L31.6367 29.6877C31.6213 29.5593 31.6134 29.4287 31.6134 29.2961C31.6134 27.4958 33.0705 26.0363 34.868 26.0363C36.3911 26.0363 37.6699 27.0844 38.0247 28.4998L45.4727 31.9988C46.0682 31.34 46.9288 30.9262 47.8859 30.9262C48.3136 30.9262 48.7219 31.0088 49.096 31.1589L54.8607 25.5192C54.7348 25.172 54.6661 24.7972 54.6661 24.4064C54.6661 22.606 56.1232 21.1465 57.9206 21.1465C59.7181 21.1465 61.1752 22.606 61.1752 24.4064ZM64.0471 37.0437C64.0471 38.8441 62.59 40.3036 60.7925 40.3036C60.3476 40.3036 59.9235 40.2141 59.5372 40.0522L53.8155 45.7044C53.9429 46.0534 54.0124 46.4303 54.0124 46.8235C54.0124 48.6239 52.5553 50.0834 50.7578 50.0834C49.127 50.0834 47.7764 48.8819 47.5399 47.3145L40.1816 44.0888C39.5853 44.7663 38.7123 45.1937 37.7396 45.1937C37.1144 45.1937 36.5303 45.0171 36.0344 44.711L27.8352 52.9361C27.9265 53.2368 27.9757 53.556 27.9757 53.8867C27.9757 55.687 26.5186 57.1465 24.7212 57.1465C22.9237 57.1465 21.4666 55.687 21.4666 53.8867C21.4666 52.0863 22.9237 50.6268 24.7212 50.6268C25.176 50.6268 25.609 50.7202 26.0021 50.889L34.5083 42.3253C34.4929 42.1969 34.4851 42.0663 34.4851 41.9338C34.4851 40.1334 35.9422 38.6739 37.7396 38.6739C39.2626 38.6739 40.5413 39.7218 40.8962 41.137L48.3446 44.6361C48.9401 43.9774 49.8007 43.5636 50.7578 43.5636C51.1854 43.5636 51.5937 43.6462 51.9678 43.7963L57.7325 38.1566C57.6066 37.8093 57.538 37.4345 57.538 37.0437C57.538 35.2433 58.9951 33.7838 60.7925 33.7838C62.59 33.7838 64.0471 35.2433 64.0471 37.0437Z" fill="white"/>
</svg>
